<svg width="30" height="30" viewBox="0 0 30 30" fill="none" xmlns="http://www.w3.org/2000/svg">
<path d="M26.25 1.875C26.7473 1.875 27.2242 2.07254 27.5758 2.42417C27.9275 2.77581 28.125 3.25272 28.125 3.75V18.75C28.125 19.2473 27.9275 19.7242 27.5758 20.0758C27.2242 20.4275 26.7473 20.625 26.25 20.625H21.5625C20.9803 20.625 20.4062 20.7605 19.8854 21.0209C19.3647 21.2812 18.9118 21.6593 18.5625 22.125L15 26.8744L11.4375 22.125C11.0882 21.6593 10.6353 21.2812 10.1146 21.0209C9.59384 20.7605 9.01967 20.625 8.4375 20.625H3.75C3.25272 20.625 2.77581 20.4275 2.42417 20.0758C2.07254 19.7242 1.875 19.2473 1.875 18.75V3.75C1.875 3.25272 2.07254 2.77581 2.42417 2.42417C2.77581 2.07254 3.25272 1.875 3.75 1.875H26.25ZM3.75 0C2.75544 0 1.80161 0.395088 1.09835 1.09835C0.395088 1.80161 0 2.75544 0 3.75L0 18.75C0 19.7446 0.395088 20.6984 1.09835 21.4016C1.80161 22.1049 2.75544 22.5 3.75 22.5H8.4375C8.72858 22.5 9.01567 22.5678 9.27603 22.6979C9.53638 22.8281 9.76285 23.0171 9.9375 23.25L13.5 27.9994C13.6747 28.2322 13.9011 28.4212 14.1615 28.5514C14.4218 28.6816 14.7089 28.7494 15 28.7494C15.2911 28.7494 15.5782 28.6816 15.8385 28.5514C16.0989 28.4212 16.3253 28.2322 16.5 27.9994L20.0625 23.25C20.2372 23.0171 20.4636 22.8281 20.724 22.6979C20.9843 22.5678 21.2714 22.5 21.5625 22.5H26.25C27.2446 22.5 28.1984 22.1049 28.9016 21.4016C29.6049 20.6984 30 19.7446 30 18.75V3.75C30 2.75544 29.6049 1.80161 28.9016 1.09835C28.1984 0.395088 27.2446 0 26.25 0L3.75 0Z" fill="black"/>
<path d="M5.625 6.5625C5.625 6.31386 5.72377 6.0754 5.89959 5.89959C6.0754 5.72377 6.31386 5.625 6.5625 5.625H23.4375C23.6861 5.625 23.9246 5.72377 24.1004 5.89959C24.2762 6.0754 24.375 6.31386 24.375 6.5625C24.375 6.81114 24.2762 7.0496 24.1004 7.22541C23.9246 7.40123 23.6861 7.5 23.4375 7.5H6.5625C6.31386 7.5 6.0754 7.40123 5.89959 7.22541C5.72377 7.0496 5.625 6.81114 5.625 6.5625ZM5.625 11.25C5.625 11.0014 5.72377 10.7629 5.89959 10.5871C6.0754 10.4113 6.31386 10.3125 6.5625 10.3125H23.4375C23.6861 10.3125 23.9246 10.4113 24.1004 10.5871C24.2762 10.7629 24.375 11.0014 24.375 11.25C24.375 11.4986 24.2762 11.7371 24.1004 11.9129C23.9246 12.0887 23.6861 12.1875 23.4375 12.1875H6.5625C6.31386 12.1875 6.0754 12.0887 5.89959 11.9129C5.72377 11.7371 5.625 11.4986 5.625 11.25ZM5.625 15.9375C5.625 15.6889 5.72377 15.4504 5.89959 15.2746C6.0754 15.0988 6.31386 15 6.5625 15H15.9375C16.1861 15 16.4246 15.0988 16.6004 15.2746C16.7762 15.4504 16.875 15.6889 16.875 15.9375C16.875 16.1861 16.7762 16.4246 16.6004 16.6004C16.4246 16.7762 16.1861 16.875 15.9375 16.875H6.5625C6.31386 16.875 6.0754 16.7762 5.89959 16.6004C5.72377 16.4246 5.625 16.1861 5.625 15.9375Z" fill="#F24822"/>
</svg>
