<svg width="63" height="60" viewBox="0 0 63 60" fill="none" xmlns="http://www.w3.org/2000/svg">
<rect width="63" height="60" rx="30" fill="white"/>
<path d="M39.5 34.75C38.6094 34.75 37.7875 35.0625 37.1437 35.5844L30.6687 30.9C30.7772 30.3049 30.7772 29.6951 30.6687 29.1L37.1437 24.4156C37.7875 24.9375 38.6094 25.25 39.5 25.25C41.5687 25.25 43.25 23.5687 43.25 21.5C43.25 19.4313 41.5687 17.75 39.5 17.75C37.4313 17.75 35.75 19.4313 35.75 21.5C35.75 21.8625 35.8 22.2094 35.8969 22.5406L29.7469 26.9937C28.8344 25.7844 27.3844 25 25.75 25C22.9875 25 20.75 27.2375 20.75 30C20.75 32.7625 22.9875 35 25.75 35C27.3844 35 28.8344 34.2156 29.7469 33.0063L35.8969 37.4594C35.8 37.7906 35.75 38.1406 35.75 38.5C35.75 40.5687 37.4313 42.25 39.5 42.25C41.5687 42.25 43.25 40.5687 43.25 38.5C43.25 36.4313 41.5687 34.75 39.5 34.75ZM39.5 19.875C40.3969 19.875 41.125 20.6031 41.125 21.5C41.125 22.3969 40.3969 23.125 39.5 23.125C38.6031 23.125 37.875 22.3969 37.875 21.5C37.875 20.6031 38.6031 19.875 39.5 19.875ZM25.75 32.75C24.2344 32.75 23 31.5156 23 30C23 28.4844 24.2344 27.25 25.75 27.25C27.2656 27.25 28.5 28.4844 28.5 30C28.5 31.5156 27.2656 32.75 25.75 32.75ZM39.5 40.125C38.6031 40.125 37.875 39.3969 37.875 38.5C37.875 37.6031 38.6031 36.875 39.5 36.875C40.3969 36.875 41.125 37.6031 41.125 38.5C41.125 39.3969 40.3969 40.125 39.5 40.125Z" fill="black"/>
<path d="M39.5 19.875C40.3968 19.875 41.125 20.6031 41.125 21.5C41.125 22.3969 40.3968 23.125 39.5 23.125C38.6031 23.125 37.875 22.3969 37.875 21.5C37.875 20.6031 38.6031 19.875 39.5 19.875ZM39.5 40.125C38.6031 40.125 37.875 39.3969 37.875 38.5C37.875 37.6031 38.6031 36.875 39.5 36.875C40.3968 36.875 41.125 37.6031 41.125 38.5C41.125 39.3969 40.3968 40.125 39.5 40.125Z" fill="#F24822"/>
</svg>
