<svg width="24" height="24" viewBox="0 0 24 24" fill="none" xmlns="http://www.w3.org/2000/svg">
<g clip-path="url(#clip0_156_1096)">
<path d="M20.5 5H4.16667C3.85725 5 3.5605 5.12292 3.34171 5.34171C3.12292 5.5605 3 5.85725 3 6.16667V17.8333C3 18.1428 3.12292 18.4395 3.34171 18.6583C3.5605 18.8771 3.85725 19 4.16667 19H20.5C20.8094 19 21.1062 18.8771 21.325 18.6583C21.5437 18.4395 21.6667 18.1428 21.6667 17.8333V6.16667C21.6667 5.85725 21.5437 5.5605 21.325 5.34171C21.1062 5.12292 20.8094 5 20.5 5ZM19.6017 17.8333H5.135L9.21833 13.61L8.37833 12.7992L4.16667 17.1567V7.05333L11.4175 14.2692C11.6361 14.4865 11.9318 14.6084 12.24 14.6084C12.5482 14.6084 12.8439 14.4865 13.0625 14.2692L20.5 6.8725V17.0808L16.2067 12.7875L15.3842 13.61L19.6017 17.8333ZM4.93083 6.16667H19.555L12.24 13.4408L4.93083 6.16667Z" fill="black"/>
</g>
<defs>
<clipPath id="clip0_156_1096">
<rect width="24" height="24" fill="white"/>
</clipPath>
</defs>
</svg>
