<svg width="92" height="41" viewBox="0 0 92 41" fill="none" xmlns="http://www.w3.org/2000/svg">
<rect y="0.5" width="92" height="40" rx="13" fill="white"/>
<g clip-path="url(#clip0_376_1330)">
<path d="M29.2499 14.1666H19.7499C18.001 14.1666 16.5833 15.5844 16.5833 17.3333V25.25C16.5833 26.9989 18.001 28.4166 19.7499 28.4166H29.2499C30.9988 28.4166 32.4166 26.9989 32.4166 25.25V17.3333C32.4166 15.5844 30.9988 14.1666 29.2499 14.1666Z" stroke="#F24822" stroke-width="2" stroke-linecap="round" stroke-linejoin="round"/>
<path d="M16.5833 18.9166H32.4166M21.3333 12.5833V15.75V12.5833ZM27.6666 12.5833V15.75V12.5833Z" stroke="#F24822" stroke-width="2" stroke-linecap="round" stroke-linejoin="round"/>
</g>
<path d="M49.76 16.92H46.22V19.272H49.64V20.592H46.22V24H44.84V15.6H49.76V16.92ZM55.8389 24L54.0629 20.94H52.4309V24H51.0509V15.6H54.4109C55.1629 15.6 55.7989 15.864 56.3189 16.392C56.8469 16.912 57.1109 17.548 57.1109 18.3C57.1109 18.836 56.9549 19.328 56.6429 19.776C56.3389 20.216 55.9389 20.536 55.4429 20.736L57.3509 24H55.8389ZM52.4309 16.896V19.704H54.4109C54.7789 19.704 55.0909 19.568 55.3469 19.296C55.6029 19.024 55.7309 18.692 55.7309 18.3C55.7309 17.908 55.6029 17.576 55.3469 17.304C55.0909 17.032 54.7789 16.896 54.4109 16.896H52.4309ZM65.3717 22.896C64.5317 23.736 63.5037 24.156 62.2877 24.156C61.0717 24.156 60.0397 23.736 59.1917 22.896C58.3517 22.048 57.9317 21.016 57.9317 19.8C57.9317 18.584 58.3517 17.556 59.1917 16.716C60.0397 15.868 61.0717 15.444 62.2877 15.444C63.5037 15.444 64.5317 15.868 65.3717 16.716C66.2197 17.556 66.6437 18.584 66.6437 19.8C66.6437 21.016 66.2197 22.048 65.3717 22.896ZM60.1637 21.96C60.7397 22.528 61.4477 22.812 62.2877 22.812C63.1277 22.812 63.8317 22.528 64.3997 21.96C64.9757 21.384 65.2637 20.664 65.2637 19.8C65.2637 18.936 64.9757 18.22 64.3997 17.652C63.8317 17.076 63.1277 16.788 62.2877 16.788C61.4477 16.788 60.7397 17.076 60.1637 17.652C59.5957 18.22 59.3117 18.936 59.3117 19.8C59.3117 20.664 59.5957 21.384 60.1637 21.96ZM75.9425 15.6V24H74.5625V18.012L72.0065 22.236H71.8385L69.2825 18V24H67.9025V15.6H69.3905L71.9225 19.8L74.4665 15.6H75.9425Z" fill="#1E1E1E"/>
<defs>
<clipPath id="clip0_376_1330">
<rect width="19" height="19" fill="white" transform="translate(15 11)"/>
</clipPath>
</defs>
</svg>
