<svg width="63" height="60" viewBox="0 0 63 60" fill="none" xmlns="http://www.w3.org/2000/svg">
<rect width="63" height="60" rx="30" fill="#F3F3F3"/>
<path d="M36.8334 39.3334C36.8334 34.9147 32.6547 31.3334 27.5 31.3334C22.3454 31.3334 18.1667 34.9147 18.1667 39.3334M35.5 31.3334C36.3912 31.3333 37.2682 31.1099 38.0508 30.6837C38.8334 30.2574 39.4967 29.6418 39.9802 28.8931C40.4636 28.1445 40.7517 27.2866 40.8182 26.3979C40.8847 25.5092 40.7274 24.618 40.3608 23.8058C39.9941 22.9935 39.4298 22.2861 38.7193 21.7481C38.0088 21.2101 37.1748 20.8587 36.2936 20.7261C35.4123 20.5935 34.5119 20.6837 33.6745 20.9887C32.8371 21.2937 32.0895 21.8037 31.5 22.472" stroke="black" stroke-width="2" stroke-linecap="round" stroke-linejoin="round"/>
<path d="M44.8333 39.3334C44.8333 34.9147 40.6547 31.3334 35.5 31.3334C34.424 31.3334 32.696 30.9427 31.5 29.6867" stroke="black" stroke-width="2" stroke-linecap="round" stroke-linejoin="round"/>
<path d="M27.5 31.3334C30.4455 31.3334 32.8334 28.9455 32.8334 26C32.8334 23.0545 30.4455 20.6667 27.5 20.6667C24.5545 20.6667 22.1667 23.0545 22.1667 26C22.1667 28.9455 24.5545 31.3334 27.5 31.3334Z" stroke="#F24822" stroke-width="2" stroke-linecap="round" stroke-linejoin="round"/>
</svg>
