<svg width="63" height="60" viewBox="0 0 63 60" fill="none" xmlns="http://www.w3.org/2000/svg">
<rect width="63" height="60" rx="30" fill="#F3F3F3"/>
<path d="M40 23.3334C40 21.8627 38.804 20.6667 37.3334 20.6667H21.3334C19.8627 20.6667 18.6667 21.8627 18.6667 23.3334V36.6667C18.6667 38.1374 19.8627 39.3334 21.3334 39.3334H37.3334C38.804 39.3334 40 38.1374 40 36.6667V32.2227L45.3334 36.6667V23.3334L40 27.7774V23.3334ZM37.336 36.6667H21.3334V23.3334H37.3334L37.3347 29.9987L37.3334 30L37.3347 30.0014L37.336 36.6667Z" fill="#F24822"/>
<path d="M39.9998 23.3333C39.9998 21.8626 38.8038 20.6666 37.3332 20.6666H21.3332C19.8625 20.6666 18.6665 21.8626 18.6665 23.3333V36.6666C18.6665 38.1373 19.8625 39.3333 21.3332 39.3333H37.3332C38.8038 39.3333 39.9998 38.1373 39.9998 36.6666V32.2226V27.7773V23.3333ZM37.3358 36.6666H21.3332V23.3333H37.3332L37.3345 29.9986L37.3332 30L37.3345 30.0013L37.3358 36.6666Z" fill="black"/>
</svg>
