<svg width="63" height="60" viewBox="0 0 63 60" fill="none" xmlns="http://www.w3.org/2000/svg">
<rect width="63" height="60" rx="30" fill="#F3F3F3"/>
<path d="M42.3125 28.1875C42.3125 28.05 42.2 27.9375 42.0625 27.9375H40.1875C40.05 27.9375 39.9375 28.05 39.9375 28.1875C39.9375 32.5719 36.3844 36.125 32 36.125C27.6156 36.125 24.0625 32.5719 24.0625 28.1875C24.0625 28.05 23.95 27.9375 23.8125 27.9375H21.9375C21.8 27.9375 21.6875 28.05 21.6875 28.1875C21.6875 33.4594 25.6438 37.8094 30.75 38.425V41.625H26.2094C25.7813 41.625 25.4375 42.0719 25.4375 42.625V43.75C25.4375 43.8875 25.525 44 25.6313 44H38.3687C38.475 44 38.5625 43.8875 38.5625 43.75V42.625C38.5625 42.0719 38.2188 41.625 37.7906 41.625H33.125V38.4406C38.2906 37.8781 42.3125 33.5031 42.3125 28.1875Z" fill="black"/>
<path d="M36.4625 28.25C36.4625 30.6711 34.4745 32.65 32 32.65C29.5255 32.65 27.5375 30.6711 27.5375 28.25V21.25C27.5375 18.8289 29.5255 16.85 32 16.85C34.4745 16.85 36.4625 18.8289 36.4625 21.25V28.25Z" stroke="#F24822" stroke-width="1.7"/>
</svg>
