<svg width="63" height="60" viewBox="0 0 63 60" fill="none" xmlns="http://www.w3.org/2000/svg">
<rect width="63" height="60" rx="30" fill="#F3F3F3"/>
<path d="M20.8333 23.3333C20.8333 22.597 21.4303 22 22.1667 22H40.8333C41.5697 22 42.1667 22.597 42.1667 23.3333C42.1667 24.0697 41.5697 24.6667 40.8333 24.6667H22.1667C21.4303 24.6667 20.8333 24.0697 20.8333 23.3333ZM20.8333 36.6667C20.8333 35.9303 21.4303 35.3333 22.1667 35.3333H40.8333C41.5697 35.3333 42.1667 35.9303 42.1667 36.6667C42.1667 37.403 41.5697 38 40.8333 38H22.1667C21.4303 38 20.8333 37.403 20.8333 36.6667Z" fill="black"/>
<path d="M40.8335 28.6666H22.1668C21.4304 28.6666 20.8335 29.2636 20.8335 30C20.8335 30.7363 21.4305 31.3333 22.1668 31.3333H40.8335C41.5699 31.3333 42.1668 30.7363 42.1668 30C42.1668 29.2636 41.5699 28.6666 40.8335 28.6666Z" fill="#F24822"/>
</svg>
