<svg width="63" height="60" viewBox="0 0 63 60" fill="none" xmlns="http://www.w3.org/2000/svg">
<rect width="63" height="60" rx="30" fill="#F3F3F3"/>
<path d="M43.25 16.875C43.7473 16.875 44.2242 17.0725 44.5758 17.4242C44.9275 17.7758 45.125 18.2527 45.125 18.75V33.75C45.125 34.2473 44.9275 34.7242 44.5758 35.0758C44.2242 35.4275 43.7473 35.625 43.25 35.625H38.5625C37.9803 35.625 37.4062 35.7605 36.8854 36.0209C36.3647 36.2812 35.9118 36.6593 35.5625 37.125L32 41.8744L28.4375 37.125C28.0882 36.6593 27.6353 36.2812 27.1146 36.0209C26.5938 35.7605 26.0197 35.625 25.4375 35.625H20.75C20.2527 35.625 19.7758 35.4275 19.4242 35.0758C19.0725 34.7242 18.875 34.2473 18.875 33.75V18.75C18.875 18.2527 19.0725 17.7758 19.4242 17.4242C19.7758 17.0725 20.2527 16.875 20.75 16.875H43.25ZM20.75 15C19.7554 15 18.8016 15.3951 18.0983 16.0983C17.3951 16.8016 17 17.7554 17 18.75V33.75C17 34.7446 17.3951 35.6984 18.0983 36.4016C18.8016 37.1049 19.7554 37.5 20.75 37.5H25.4375C25.7286 37.5 26.0157 37.5678 26.276 37.6979C26.5364 37.8281 26.7628 38.0171 26.9375 38.25L30.5 42.9994C30.6747 43.2322 30.9011 43.4212 31.1615 43.5514C31.4218 43.6816 31.7089 43.7494 32 43.7494C32.2911 43.7494 32.5782 43.6816 32.8385 43.5514C33.0989 43.4212 33.3253 43.2322 33.5 42.9994L37.0625 38.25C37.2372 38.0171 37.4636 37.8281 37.724 37.6979C37.9843 37.5678 38.2714 37.5 38.5625 37.5H43.25C44.2446 37.5 45.1984 37.1049 45.9016 36.4016C46.6049 35.6984 47 34.7446 47 33.75V18.75C47 17.7554 46.6049 16.8016 45.9016 16.0983C45.1984 15.3951 44.2446 15 43.25 15H20.75Z" fill="black"/>
<path d="M22.625 21.5625C22.625 21.3139 22.7238 21.0754 22.8996 20.8996C23.0754 20.7238 23.3139 20.625 23.5625 20.625H40.4375C40.6861 20.625 40.9246 20.7238 41.1004 20.8996C41.2762 21.0754 41.375 21.3139 41.375 21.5625C41.375 21.8111 41.2762 22.0496 41.1004 22.2254C40.9246 22.4012 40.6861 22.5 40.4375 22.5H23.5625C23.3139 22.5 23.0754 22.4012 22.8996 22.2254C22.7238 22.0496 22.625 21.8111 22.625 21.5625ZM22.625 26.25C22.625 26.0014 22.7238 25.7629 22.8996 25.5871C23.0754 25.4113 23.3139 25.3125 23.5625 25.3125H40.4375C40.6861 25.3125 40.9246 25.4113 41.1004 25.5871C41.2762 25.7629 41.375 26.0014 41.375 26.25C41.375 26.4986 41.2762 26.7371 41.1004 26.9129C40.9246 27.0887 40.6861 27.1875 40.4375 27.1875H23.5625C23.3139 27.1875 23.0754 27.0887 22.8996 26.9129C22.7238 26.7371 22.625 26.4986 22.625 26.25ZM22.625 30.9375C22.625 30.6889 22.7238 30.4504 22.8996 30.2746C23.0754 30.0988 23.3139 30 23.5625 30H32.9375C33.1861 30 33.4246 30.0988 33.6004 30.2746C33.7762 30.4504 33.875 30.6889 33.875 30.9375C33.875 31.1861 33.7762 31.4246 33.6004 31.6004C33.4246 31.7762 33.1861 31.875 32.9375 31.875H23.5625C23.3139 31.875 23.0754 31.7762 22.8996 31.6004C22.7238 31.4246 22.625 31.1861 22.625 30.9375Z" fill="#F24822"/>
</svg>
