<svg width="63" height="60" viewBox="0 0 63 60" fill="none" xmlns="http://www.w3.org/2000/svg">
<rect width="63" height="60" rx="30" fill="#F3F3F3"/>
<path d="M18.6667 22.3333C18.6667 21.5377 18.9828 20.7746 19.5454 20.212C20.108 19.6494 20.871 19.3333 21.6667 19.3333H42.3334C43.129 19.3333 43.8921 19.6494 44.4547 20.212C45.0173 20.7746 45.3334 21.5377 45.3334 22.3333V37.6666C45.3334 38.0606 45.2558 38.4507 45.105 38.8147C44.9542 39.1787 44.7332 39.5094 44.4547 39.788C44.1761 40.0665 43.8454 40.2875 43.4814 40.4383C43.1174 40.5891 42.7273 40.6666 42.3334 40.6666H21.6667C21.2727 40.6666 20.8826 40.5891 20.5186 40.4383C20.1547 40.2875 19.8239 40.0665 19.5454 39.788C19.2668 39.5094 19.0458 39.1787 18.895 38.8147C18.7443 38.4507 18.6667 38.0606 18.6667 37.6666V22.3333ZM21.6667 21.3333C21.4015 21.3333 21.1471 21.4387 20.9596 21.6262C20.772 21.8137 20.6667 22.0681 20.6667 22.3333V37.6666C20.6667 38.2186 21.1147 38.6666 21.6667 38.6666H42.3334C42.5986 38.6666 42.8529 38.5613 43.0405 38.3738C43.228 38.1862 43.3334 37.9319 43.3334 37.6666V22.3333C43.3334 22.0681 43.228 21.8137 43.0405 21.6262C42.8529 21.4387 42.5986 21.3333 42.3334 21.3333H21.6667Z" fill="black"/>
<path d="M32.7065 23.9534C32.5192 23.7658 32.265 23.6603 31.9999 23.66V23.6614C31.7348 23.6616 31.4806 23.7671 31.2932 23.9547L26.9599 28.2934C26.8616 28.3849 26.7828 28.4953 26.7282 28.618C26.6735 28.7406 26.6441 28.8731 26.6418 29.0073C26.6394 29.1416 26.6641 29.275 26.7144 29.3995C26.7647 29.524 26.8395 29.6371 26.9345 29.7321C27.0295 29.827 27.1426 29.9019 27.2671 29.9522C27.3916 30.0025 27.525 30.0272 27.6592 30.0248C27.7935 30.0225 27.9259 29.9931 28.0486 29.9384C28.1713 29.8838 28.2817 29.8049 28.3732 29.7067L30.9999 27.0774V35.6707C30.9999 35.9359 31.1052 36.1903 31.2928 36.3778C31.4803 36.5653 31.7347 36.6707 31.9999 36.6707C32.2651 36.6707 32.5194 36.5653 32.707 36.3778C32.8945 36.1903 32.9999 35.9359 32.9999 35.6707V27.0747L35.6332 29.7067C35.7248 29.8049 35.8352 29.8838 35.9578 29.9384C36.0805 29.9931 36.2129 30.0225 36.3472 30.0248C36.4815 30.0272 36.6148 30.0025 36.7393 29.9522C36.8639 29.9019 36.977 29.827 37.0719 29.7321C37.1669 29.6371 37.2417 29.524 37.292 29.3995C37.3423 29.275 37.367 29.1416 37.3647 29.0073C37.3623 28.8731 37.3329 28.7406 37.2783 28.618C37.2236 28.4953 37.1448 28.3849 37.0465 28.2934L32.7065 23.9534Z" fill="#F24822"/>
</svg>
