<svg width="63" height="60" viewBox="0 0 63 60" fill="none" xmlns="http://www.w3.org/2000/svg">
<rect width="63" height="60" rx="30" fill="#F24822"/>
<path d="M27.1792 17.3056L26.032 17.6512C25.0105 17.9593 24.0983 18.5527 23.4027 19.3617C22.7071 20.1706 22.2571 21.1615 22.1056 22.2176C21.6304 25.5264 22.6928 29.3952 25.2544 33.832C27.8096 38.2576 30.6224 41.1088 33.7184 42.3568C34.7131 42.7577 35.8021 42.8646 36.8558 42.6646C37.9095 42.4646 38.8837 41.9663 39.6624 41.2288L40.5296 40.4064C41.0927 39.8735 41.4432 39.1542 41.5159 38.3823C41.5886 37.6104 41.3785 36.8383 40.9248 36.2096L38.7552 33.2016C38.4619 32.7955 38.0488 32.4914 37.5739 32.3319C37.0991 32.1723 36.5862 32.1654 36.1072 32.312L32.8256 33.3152L32.7408 33.3312C32.3792 33.384 31.544 32.6016 30.504 30.8C29.416 28.9152 29.192 27.8128 29.4912 27.528L31.16 25.9712C31.7702 25.4023 32.1871 24.6567 32.3521 23.8389C32.5171 23.0211 32.4219 22.1722 32.08 21.4112L31.0208 19.0576C30.7023 18.3494 30.1371 17.7811 29.4306 17.4587C28.7241 17.1364 27.9245 17.082 27.1808 17.3056H27.1792ZM29.5632 19.7136L30.6192 22.0672C30.8248 22.5236 30.8824 23.0329 30.7836 23.5236C30.6849 24.0144 30.4349 24.4619 30.0688 24.8032L28.3952 26.3616C27.3248 27.376 27.68 29.1072 29.12 31.6C30.4736 33.9456 31.7088 35.104 33.0368 34.9024L33.2352 34.8608L36.576 33.8416C36.7357 33.7926 36.9067 33.7947 37.0651 33.8478C37.2235 33.9009 37.3613 34.0022 37.4592 34.1376L39.6288 37.1456C39.856 37.4599 39.9613 37.8461 39.9251 38.2322C39.8889 38.6183 39.7136 38.9782 39.432 39.2448L38.5632 40.0672C38.0069 40.5936 37.3113 40.9493 36.5588 41.092C35.8063 41.2347 35.0287 41.1583 34.3184 40.872C31.6016 39.7776 29.0336 37.1744 26.6416 33.032C24.2432 28.88 23.272 25.3488 23.6896 22.4448C23.7977 21.6903 24.1191 20.9824 24.616 20.4044C25.1129 19.8264 25.7646 19.4025 26.4944 19.1824L27.6416 18.8368C28.0135 18.725 28.4134 18.7524 28.7667 18.9137C29.1199 19.075 29.4025 19.3593 29.5616 19.7136H29.5632Z" fill="white"/>
</svg>
