<svg width="33" height="32" viewBox="0 0 33 32" fill="none" xmlns="http://www.w3.org/2000/svg">
<path d="M5.83334 9.33333C5.83334 8.59695 6.4303 8 7.16668 8H25.8333C26.5697 8 27.1667 8.59695 27.1667 9.33333C27.1667 10.0697 26.5697 10.6667 25.8333 10.6667H7.16668C6.4303 10.6667 5.83334 10.0697 5.83334 9.33333ZM5.83334 22.6667C5.83334 21.9303 6.4303 21.3333 7.16668 21.3333H25.8333C26.5697 21.3333 27.1667 21.9303 27.1667 22.6667C27.1667 23.403 26.5697 24 25.8333 24H7.16668C6.4303 24 5.83334 23.403 5.83334 22.6667Z" fill="black"/>
<path d="M25.8335 14.6666H7.16683C6.43045 14.6666 5.8335 15.2636 5.8335 16C5.8335 16.7363 6.43045 17.3333 7.16683 17.3333H25.8335C26.5699 17.3333 27.1668 16.7363 27.1668 16C27.1668 15.2636 26.5699 14.6666 25.8335 14.6666Z" fill="#F24822"/>
</svg>
