<svg width="32" height="32" viewBox="0 0 32 32" fill="none" xmlns="http://www.w3.org/2000/svg">
<path d="M26.3125 14.1875C26.3125 14.05 26.2 13.9375 26.0625 13.9375H24.1875C24.05 13.9375 23.9375 14.05 23.9375 14.1875C23.9375 18.5719 20.3844 22.125 16 22.125C11.6156 22.125 8.0625 18.5719 8.0625 14.1875C8.0625 14.05 7.95 13.9375 7.8125 13.9375H5.9375C5.8 13.9375 5.6875 14.05 5.6875 14.1875C5.6875 19.4594 9.64375 23.8094 14.75 24.425V27.625H10.2094C9.78125 27.625 9.4375 28.0719 9.4375 28.625V29.75C9.4375 29.8875 9.525 30 9.63125 30H22.3687C22.475 30 22.5625 29.8875 22.5625 29.75V28.625C22.5625 28.0719 22.2188 27.625 21.7906 27.625H17.125V24.4406C22.2906 23.8781 26.3125 19.5031 26.3125 14.1875Z" fill="black"/>
<path d="M20.4625 14.25C20.4625 16.6711 18.4745 18.65 16 18.65C13.5255 18.65 11.5375 16.6711 11.5375 14.25V7.25C11.5375 4.82891 13.5255 2.85 16 2.85C18.4745 2.85 20.4625 4.82891 20.4625 7.25V14.25Z" stroke="#F24822" stroke-width="1.7"/>
</svg>
