<svg width="20" height="20" viewBox="0 0 20 20" fill="none" xmlns="http://www.w3.org/2000/svg">
<path d="M17.3172 14.4039C16.7306 13.8168 16.0451 13.3376 15.2922 12.9883C16.354 12.1281 17.0313 10.8156 17.0313 9.34375C17.0313 6.74688 14.8657 4.61641 12.2688 4.65625C9.71178 4.69609 7.65162 6.77969 7.65162 9.34375C7.65162 10.8156 8.33131 12.1281 9.39068 12.9883C8.63765 13.3373 7.95214 13.8166 7.36568 14.4039C6.086 15.6859 5.35943 17.3781 5.31256 19.1828C5.31193 19.2078 5.31632 19.2327 5.32546 19.256C5.33461 19.2793 5.34832 19.3005 5.36579 19.3184C5.38327 19.3363 5.40415 19.3506 5.42721 19.3603C5.45027 19.37 5.47504 19.375 5.50006 19.375H6.81256C6.91334 19.375 6.99772 19.2953 7.00006 19.1945C7.04459 17.8352 7.59537 16.5625 8.56334 15.5969C9.05867 15.0989 9.64784 14.7041 10.2968 14.4354C10.9457 14.1667 11.6414 14.0293 12.3438 14.0312C13.7712 14.0312 15.1141 14.5867 16.1243 15.5969C17.0899 16.5625 17.6407 17.8352 17.6876 19.1945C17.6899 19.2953 17.7743 19.375 17.8751 19.375H19.1876C19.2126 19.375 19.2374 19.37 19.2604 19.3603C19.2835 19.3506 19.3044 19.3363 19.3218 19.3184C19.3393 19.3005 19.353 19.2793 19.3622 19.256C19.3713 19.2327 19.3757 19.2078 19.3751 19.1828C19.3282 17.3781 18.6016 15.6859 17.3172 14.4039ZM12.3438 12.3438C11.5422 12.3438 10.7876 12.032 10.2227 11.4648C9.93925 11.1836 9.71533 10.8482 9.56433 10.4785C9.41332 10.1088 9.33833 9.71255 9.34381 9.31328C9.35084 8.54453 9.65787 7.80156 10.1946 7.25078C10.7571 6.67422 11.5094 6.35313 12.3133 6.34375C13.1079 6.33672 13.879 6.64609 14.4462 7.20156C15.0274 7.77109 15.3462 8.53281 15.3462 9.34375C15.3462 10.1453 15.0344 10.8977 14.4672 11.4648C14.189 11.7444 13.858 11.9661 13.4935 12.1169C13.1291 12.2678 12.7383 12.3449 12.3438 12.3438ZM6.47272 9.9625C6.45162 9.75859 6.4399 9.55234 6.4399 9.34375C6.4399 8.97109 6.47506 8.60781 6.54068 8.25391C6.55709 8.16953 6.51256 8.08281 6.43521 8.04766C6.11647 7.90469 5.8235 7.70781 5.57037 7.45938C5.27211 7.17017 5.0374 6.82197 4.88123 6.43699C4.72506 6.05201 4.65085 5.6387 4.66334 5.22344C4.68443 4.47109 4.98678 3.75625 5.51412 3.21719C6.09303 2.62422 6.87115 2.30078 7.6985 2.31016C8.44615 2.31719 9.16803 2.60547 9.71412 3.11641C9.89928 3.28984 10.0587 3.48203 10.1922 3.68828C10.2391 3.76094 10.3305 3.79141 10.4102 3.76328C10.8227 3.62031 11.2587 3.51953 11.7063 3.47266C11.8376 3.45859 11.9126 3.31797 11.854 3.20078C11.0922 1.69375 9.536 0.653126 7.736 0.625001C5.13678 0.585157 2.97115 2.71563 2.97115 5.31016C2.97115 6.78203 3.6485 8.09453 4.71022 8.95469C3.9649 9.29922 3.27818 9.775 2.68287 10.3703C1.3985 11.6523 0.671934 13.3445 0.625059 15.1516C0.624433 15.1766 0.628821 15.2015 0.637963 15.2248C0.647105 15.248 0.660817 15.2693 0.678291 15.2872C0.695764 15.3051 0.716646 15.3193 0.739706 15.329C0.762766 15.3388 0.787536 15.3438 0.812559 15.3438H2.1274C2.22818 15.3438 2.31256 15.2641 2.3149 15.1633C2.35943 13.8039 2.91022 12.5312 3.87818 11.5656C4.56725 10.8766 5.411 10.3984 6.33209 10.1664C6.4235 10.143 6.48443 10.0563 6.47272 9.9625Z" fill="#2BAC76"/>
</svg>
