<svg width="21" height="26" viewBox="0 0 21 26" fill="none" xmlns="http://www.w3.org/2000/svg">
<path d="M6.17919 0.305606L5.03199 0.651206C4.01051 0.959252 3.09829 1.55269 2.40269 2.36167C1.7071 3.17065 1.25707 4.1615 1.10559 5.21761C0.630389 8.52641 1.69279 12.3952 4.25439 16.832C6.80959 21.2576 9.62239 24.1088 12.7184 25.3568C13.7131 25.7577 14.8021 25.8646 15.8558 25.6646C16.9095 25.4646 17.8837 24.9663 18.6624 24.2288L19.5296 23.4064C20.0927 22.8735 20.4432 22.1542 20.5159 21.3823C20.5886 20.6104 20.3785 19.8383 19.9248 19.2096L17.7552 16.2016C17.4619 15.7955 17.0488 15.4914 16.5739 15.3319C16.0991 15.1723 15.5862 15.1654 15.1072 15.312L11.8256 16.3152L11.7408 16.3312C11.3792 16.384 10.544 15.6016 9.50399 13.8C8.41599 11.9152 8.19199 10.8128 8.49119 10.528L10.16 8.9712C10.7702 8.40234 11.1871 7.65671 11.3521 6.83891C11.5171 6.02111 11.4219 5.17218 11.08 4.41121L10.0208 2.05761C9.70229 1.34935 9.1371 0.781091 8.43059 0.458745C7.72408 0.1364 6.92446 0.0819715 6.18079 0.305606H6.17919ZM8.56319 2.71361L9.61919 5.0672C9.82485 5.52357 9.88235 6.03291 9.78363 6.52365C9.68491 7.01439 9.43492 7.46186 9.06879 7.8032L7.39519 9.3616C6.32479 10.376 6.67999 12.1072 8.11999 14.6C9.47359 16.9456 10.7088 18.104 12.0368 17.9024L12.2352 17.8608L15.576 16.8416C15.7357 16.7926 15.9067 16.7947 16.0651 16.8478C16.2235 16.9009 16.3613 17.0022 16.4592 17.1376L18.6288 20.1456C18.856 20.4599 18.9613 20.8461 18.9251 21.2322C18.8889 21.6183 18.7136 21.9782 18.432 22.2448L17.5632 23.0672C17.0069 23.5936 16.3113 23.9493 15.5588 24.092C14.8063 24.2347 14.0287 24.1583 13.3184 23.872C10.6016 22.7776 8.03359 20.1744 5.64159 16.032C3.24319 11.88 2.27199 8.3488 2.68959 5.4448C2.79769 4.69029 3.11911 3.98237 3.61602 3.4044C4.11293 2.82642 4.76463 2.40245 5.49439 2.18241L6.64159 1.83681C7.01352 1.72504 7.41341 1.75237 7.76668 1.9137C8.11994 2.07503 8.40248 2.35933 8.56159 2.71361H8.56319Z" fill="white"/>
</svg>
