<svg width="32" height="32" viewBox="0 0 32 32" fill="none" xmlns="http://www.w3.org/2000/svg">
<path d="M2.66669 8.33331C2.66669 7.53766 2.98276 6.7746 3.54537 6.21199C4.10798 5.64938 4.87104 5.33331 5.66669 5.33331H26.3334C27.129 5.33331 27.8921 5.64938 28.4547 6.21199C29.0173 6.7746 29.3334 7.53766 29.3334 8.33331V23.6666C29.3334 24.0606 29.2558 24.4507 29.105 24.8147C28.9542 25.1787 28.7332 25.5094 28.4547 25.788C28.1761 26.0665 27.8454 26.2875 27.4814 26.4383C27.1174 26.5891 26.7273 26.6666 26.3334 26.6666H5.66669C5.27272 26.6666 4.88261 26.5891 4.51864 26.4383C4.15466 26.2875 3.82394 26.0665 3.54537 25.788C3.26679 25.5094 3.04581 25.1787 2.89505 24.8147C2.74428 24.4507 2.66669 24.0606 2.66669 23.6666V8.33331ZM5.66669 7.33331C5.40147 7.33331 5.14712 7.43867 4.95958 7.62621C4.77204 7.81374 4.66669 8.0681 4.66669 8.33331V23.6666C4.66669 24.2186 5.11469 24.6666 5.66669 24.6666H26.3334C26.5986 24.6666 26.8529 24.5613 27.0405 24.3738C27.228 24.1862 27.3334 23.9319 27.3334 23.6666V8.33331C27.3334 8.0681 27.228 7.81374 27.0405 7.62621C26.8529 7.43867 26.5986 7.33331 26.3334 7.33331H5.66669Z" fill="black"/>
<path d="M16.7065 9.95337C16.5192 9.76578 16.265 9.66027 15.9999 9.66003V9.66137C15.7348 9.6616 15.4806 9.76711 15.2932 9.9547L10.9599 14.2934C10.8616 14.3849 10.7828 14.4953 10.7282 14.618C10.6735 14.7406 10.6441 14.8731 10.6418 15.0073C10.6394 15.1416 10.6641 15.275 10.7144 15.3995C10.7647 15.524 10.8395 15.6371 10.9345 15.7321C11.0295 15.827 11.1426 15.9019 11.2671 15.9522C11.3916 16.0025 11.525 16.0272 11.6592 16.0248C11.7935 16.0225 11.9259 15.9931 12.0486 15.9384C12.1713 15.8838 12.2817 15.8049 12.3732 15.7067L14.9999 13.0774V21.6707C14.9999 21.9359 15.1052 22.1903 15.2928 22.3778C15.4803 22.5653 15.7347 22.6707 15.9999 22.6707C16.2651 22.6707 16.5194 22.5653 16.707 22.3778C16.8945 22.1903 16.9999 21.9359 16.9999 21.6707V13.0747L19.6332 15.7067C19.7248 15.8049 19.8352 15.8838 19.9578 15.9384C20.0805 15.9931 20.2129 16.0225 20.3472 16.0248C20.4815 16.0272 20.6148 16.0025 20.7393 15.9522C20.8639 15.9019 20.977 15.827 21.0719 15.7321C21.1669 15.6371 21.2417 15.524 21.292 15.3995C21.3423 15.275 21.367 15.1416 21.3647 15.0073C21.3623 14.8731 21.3329 14.7406 21.2783 14.618C21.2236 14.4953 21.1448 14.3849 21.0465 14.2934L16.7065 9.95337Z" fill="#F24822"/>
</svg>
