<svg width="75" height="41" viewBox="0 0 75 41" fill="none" xmlns="http://www.w3.org/2000/svg">
<rect y="0.5" width="75" height="40" rx="13" fill="white"/>
<g clip-path="url(#clip0_376_1336)">
<path d="M29.2499 14.1666H19.7499C18.001 14.1666 16.5833 15.5844 16.5833 17.3333V25.25C16.5833 26.9989 18.001 28.4166 19.7499 28.4166H29.2499C30.9988 28.4166 32.4166 26.9989 32.4166 25.25V17.3333C32.4166 15.5844 30.9988 14.1666 29.2499 14.1666Z" stroke="#F24822" stroke-width="2" stroke-linecap="round" stroke-linejoin="round"/>
<path d="M16.5833 18.9166H32.4166M21.3333 12.5833V15.75V12.5833ZM27.6666 12.5833V15.75V12.5833Z" stroke="#F24822" stroke-width="2" stroke-linecap="round" stroke-linejoin="round"/>
</g>
<path d="M50.3 15.6V16.92H47.936V24H46.556V16.92H44.18V15.6H50.3ZM57.86 22.896C57.02 23.736 55.992 24.156 54.776 24.156C53.56 24.156 52.528 23.736 51.68 22.896C50.84 22.048 50.42 21.016 50.42 19.8C50.42 18.584 50.84 17.556 51.68 16.716C52.528 15.868 53.56 15.444 54.776 15.444C55.992 15.444 57.02 15.868 57.86 16.716C58.708 17.556 59.132 18.584 59.132 19.8C59.132 21.016 58.708 22.048 57.86 22.896ZM52.652 21.96C53.228 22.528 53.936 22.812 54.776 22.812C55.616 22.812 56.32 22.528 56.888 21.96C57.464 21.384 57.752 20.664 57.752 19.8C57.752 18.936 57.464 18.22 56.888 17.652C56.32 17.076 55.616 16.788 54.776 16.788C53.936 16.788 53.228 17.076 52.652 17.652C52.084 18.22 51.8 18.936 51.8 19.8C51.8 20.664 52.084 21.384 52.652 21.96Z" fill="#1E1E1E"/>
<defs>
<clipPath id="clip0_376_1336">
<rect width="19" height="19" fill="white" transform="translate(15 11)"/>
</clipPath>
</defs>
</svg>
