<svg width="33" height="32" viewBox="0 0 33 32" fill="none" xmlns="http://www.w3.org/2000/svg">
<path d="M21.8334 25.3334C21.8334 20.9147 17.6547 17.3334 12.5 17.3334C7.34535 17.3334 3.16669 20.9147 3.16669 25.3334M20.5 17.3334C21.3912 17.3333 22.2682 17.1099 23.0508 16.6837C23.8334 16.2574 24.4967 15.6418 24.9802 14.8931C25.4636 14.1445 25.7517 13.2866 25.8182 12.3979C25.8847 11.5092 25.7274 10.618 25.3608 9.80575C24.9941 8.99349 24.4298 8.28606 23.7193 7.74808C23.0088 7.21011 22.1748 6.85875 21.2936 6.7261C20.4123 6.59345 19.5119 6.68375 18.6745 6.98874C17.8371 7.29373 17.0895 7.80368 16.5 8.47202" stroke="black" stroke-width="2" stroke-linecap="round" stroke-linejoin="round"/>
<path d="M29.8333 25.3334C29.8333 20.9147 25.6547 17.3334 20.5 17.3334C19.424 17.3334 17.696 16.9427 16.5 15.6867" stroke="black" stroke-width="2" stroke-linecap="round" stroke-linejoin="round"/>
<path d="M12.5 17.3334C15.4455 17.3334 17.8334 14.9455 17.8334 12C17.8334 9.0545 15.4455 6.66669 12.5 6.66669C9.5545 6.66669 7.16669 9.0545 7.16669 12C7.16669 14.9455 9.5545 17.3334 12.5 17.3334Z" stroke="#F24822" stroke-width="2" stroke-linecap="round" stroke-linejoin="round"/>
</svg>
