<svg width="32" height="32" viewBox="0 0 32 32" fill="none" xmlns="http://www.w3.org/2000/svg">
<path d="M24 9.33335C24 7.86269 22.804 6.66669 21.3334 6.66669H5.33335C3.86269 6.66669 2.66669 7.86269 2.66669 9.33335V22.6667C2.66669 24.1374 3.86269 25.3334 5.33335 25.3334H21.3334C22.804 25.3334 24 24.1374 24 22.6667V18.2227L29.3334 22.6667V9.33335L24 13.7774V9.33335ZM21.336 22.6667H5.33335V9.33335H21.3334L21.3347 15.9987L21.3334 16L21.3347 16.0014L21.336 22.6667Z" fill="#F24822"/>
<path d="M23.9998 9.33329C23.9998 7.86263 22.8038 6.66663 21.3332 6.66663H5.33317C3.8625 6.66663 2.6665 7.86263 2.6665 9.33329V22.6666C2.6665 24.1373 3.8625 25.3333 5.33317 25.3333H21.3332C22.8038 25.3333 23.9998 24.1373 23.9998 22.6666V18.2226V13.7773V9.33329ZM21.3358 22.6666H5.33317V9.33329H21.3332L21.3345 15.9986L21.3332 16L21.3345 16.0013L21.3358 22.6666Z" fill="black"/>
</svg>
